# xmcd
#
# Track frame offsets:
# 150
# 12661
# 24926
# 38329
# 51478
# 65589
# 81657
# 97984
# 109641
# 122300
# 134943
# 147930
#
# Disc length: 2203 seconds
#
#
# Revision: 1
# Processed by: cddbd v1.5.1PL2 Copyright (c) Steve Scherf et al.
# Submitted via: FreeRIP 2.945 
#
DISCID=a508990c
DTITLE=Merle Haggard - Sing Me Back Home Greatest Hits C D-2
DYEAR=2004
DGENRE=Country
TTITLE0=If We Make It Through December
TTITLE1=Everybody's Had The Blues
TTITLE2=Holding Things Together
TTITLE3=Kentucky Gambler
TTITLE4=Always Wanting You
TTITLE5=Its All In The Movies
TTITLE6=Ramblin'  Fever
TTITLE7=From Graceland To The Promised Land
TTITLE8=I'M Always On A  Mountain When I Fall
TTITLE9=It's Been A Great Afternoon
TTITLE10=Misery And Gin
TTITLE11=I Think I'll Just Stay Here And Drink
EXTD=Remake
EXTT0=
EXTT1=
EXTT2=
EXTT3=
EXTT4=
EXTT5=
EXTT6=
EXTT7=
EXTT8=
EXTT9=
EXTT10=
EXTT11=
PLAYORDER=
